<svg xmlns="http://www.w3.org/2000/svg" width="43" height="36" fill="none"><path fill="#2b7fff" d="M42.016 8.382a2.53 2.53 0 0 0-1.325-.637 2.43 2.43 0 0 0-1.432.224l-9.468 4.62a.34.34 0 0 1-.276.03.4.4 0 0 1-.124-.073.4.4 0 0 1-.088-.122L23.772 1.493a2.76 2.76 0 0 0-.958-1.092A2.43 2.43 0 0 0 21.484 0a2.43 2.43 0 0 0-1.33.401c-.402.263-.733.64-.957 1.092l-5.531 10.931a.4.4 0 0 1-.089.122.35.35 0 0 1-.124.074.33.33 0 0 1-.275-.03L3.709 7.97a2.4 2.4 0 0 0-1.43-.233 2.5 2.5 0 0 0-1.324.634 2.9 2.9 0 0 0-.819 1.31 3.16 3.16 0 0 0-.064 1.588l4.781 22.337c.08.378.23.733.44 1.045s.475.574.779.77c.4.27.861.413 1.331.413.24-.003.48-.037.712-.104a45.84 45.84 0 0 1 26.72-.02c.34.108.698.14 1.05.091.352-.048.692-.174 1-.37.306-.197.573-.46.785-.774.211-.313.363-.671.445-1.05l4.763-22.338a3.1 3.1 0 0 0-.052-1.58 2.87 2.87 0 0 0-.81-1.307m-1.313 2.31-4.781 22.337a.48.48 0 0 1-.169.268.43.43 0 0 1-.3.041 47.88 47.88 0 0 0-27.938 0 .34.34 0 0 1-.295-.043.4.4 0 0 1-.112-.114.4.4 0 0 1-.061-.152L2.265 10.692a.48.48 0 0 1 .08-.354.4.4 0 0 1 .131-.116.4.4 0 0 1 .164-.046l.15.041 9.488 4.641a2.39 2.39 0 0 0 1.898.104c.623-.23 1.143-.708 1.458-1.341l5.532-10.932a.4.4 0 0 1 .13-.158.33.33 0 0 1 .376 0 .4.4 0 0 1 .131.158l5.531 10.932c.315.633.836 1.112 1.458 1.341.622.23 1.3.192 1.898-.104l9.488-4.64a.34.34 0 0 1 .394.061.4.4 0 0 1 .12.186.45.45 0 0 1 .011.227M28.609 26.367a1.3 1.3 0 0 1-.37.79c-.208.206-.476.32-.755.323h-.112a53.5 53.5 0 0 0-11.775 0 1.05 1.05 0 0 1-.824-.265 1.27 1.27 0 0 1-.414-.828 1.35 1.35 0 0 1 .254-.907c.19-.255.462-.417.759-.454a52.7 52.7 0 0 1 12.225 0c.293.037.563.197.751.446.189.25.282.57.261.895"/></svg>