<svg xmlns="http://www.w3.org/2000/svg" style="display: none;">
  <symbol id="arrow-left" viewBox="0 0 18 15" fill="currentColor">
    <path d="M.293 8.071a1 1 0 0 1 0-1.414L6.657.293A1 1 0 1 1 8.07 1.707L2.414 7.364l5.657 5.657a1 1 0 1 1-1.414 1.414zm17.469.293H1v-2h16.762z"/>
  </symbol>
  <symbol id="arrow-right" viewBox="0 0 18 15" fill="currentColor">
    <path d="M17.707 6.929a1 1 0 0 1 0 1.414l-6.364 6.364a1 1 0 1 1-1.414-1.414l5.657-5.657-5.657-5.657a1 1 0 0 1 1.414-1.414zM.238 7.222h16.762v2H.238z"/>
  </symbol>
  <symbol id="star" viewBox="0 0 56 56" fill="none">
    <path fill="currentColor" d="m11.713 0 18.65 17.822 25.063-6.11-17.822 18.651 6.109 25.063-18.65-17.822L0 43.713l17.822-18.65z"/>
  </symbol>
  <symbol id="crown" viewBox="0 0 42 35" fill="none">
    <path fill="#2b7fff" d="M42.016 8.382a2.53 2.53 0 0 0-1.325-.637 2.43 2.43 0 0 0-1.432.224l-9.468 4.62a.34.34 0 0 1-.276.03.4.4 0 0 1-.124-.073.4.4 0 0 1-.088-.122L23.772 1.493a2.76 2.76 0 0 0-.958-1.092A2.43 2.43 0 0 0 21.484 0a2.43 2.43 0 0 0-1.33.401c-.402.263-.733.64-.957 1.092l-5.531 10.931a.4.4 0 0 1-.089.122.35.35 0 0 1-.124.074.33.33 0 0 1-.275-.03L3.709 7.97a2.4 2.4 0 0 0-1.43-.233 2.5 2.5 0 0 0-1.324.634 2.9 2.9 0 0 0-.819 1.31 3.16 3.16 0 0 0-.064 1.588l4.781 22.337c.08.378.23.733.44 1.045s.475.574.779.77c.4.27.861.413 1.331.413.24-.003.48-.037.712-.104a45.84 45.84 0 0 1 26.72-.02c.34.108.698.14 1.05.091.352-.048.692-.174 1-.37.306-.197.573-.46.785-.774.211-.313.363-.671.445-1.05l4.763-22.338a3.1 3.1 0 0 0-.052-1.58 2.87 2.87 0 0 0-.81-1.307m-1.313 2.31-4.781 22.337a.48.48 0 0 1-.169.268.43.43 0 0 1-.3.041 47.88 47.88 0 0 0-27.938 0 .34.34 0 0 1-.295-.043.4.4 0 0 1-.112-.114.4.4 0 0 1-.061-.152L2.265 10.692a.48.48 0 0 1 .08-.354.4.4 0 0 1 .131-.116.4.4 0 0 1 .164-.046l.15.041 9.488 4.641a2.39 2.39 0 0 0 1.898.104c.623-.23 1.143-.708 1.458-1.341l5.532-10.932a.4.4 0 0 1 .13-.158.33.33 0 0 1 .376 0 .4.4 0 0 1 .131.158l5.531 10.932c.315.633.836 1.112 1.458 1.341.622.23 1.3.192 1.898-.104l9.488-4.64a.34.34 0 0 1 .394.061.4.4 0 0 1 .12.186.45.45 0 0 1 .011.227M28.609 26.367a1.3 1.3 0 0 1-.37.79c-.208.206-.476.32-.755.323h-.112a53.5 53.5 0 0 0-11.775 0 1.05 1.05 0 0 1-.824-.265 1.27 1.27 0 0 1-.414-.828 1.35 1.35 0 0 1 .254-.907c.19-.255.462-.417.759-.454a52.7 52.7 0 0 1 12.225 0c.293.037.563.197.751.446.189.25.282.57.261.895"/>
  </symbol>
  <symbol id="medicine" viewBox="0 0 43 33" fill="none">
    <path fill="#2b7fff" d="M13.108 10.883H-.184c-.409 0-.739.316-.739.708v4.251c0 .392.33.709.739.709h.738v16.295c0 .392.33.709.739.709H11.63c.408 0 .739-.317.739-.709V16.551h.738c.408 0 .738-.317.738-.709v-4.25c0-.393-.33-.71-.738-.71M4.985 24.344v-1.417h4.43V21.51h-4.43v-1.417h5.908v9.21H4.985v-3.542h1.477v-1.417zm5.908-5.668H4.246c-.408 0-.738.317-.738.709v10.627c0 .392.33.709.738.709h6.647v1.417H2.03V16.55h8.862zm1.476-3.542H.555V12.3H12.37zM22.893 11.015v-5.18c0-.403-.33-.729-.739-.729h-.738V1.46h1.477V0H14.77v1.459h5.169v3.647H19.2a.733.733 0 0 0-.738.73v5.18c-1.683.339-2.954 1.811-2.954 3.573v18.236c0 .404.33.73.739.73h8.861a.733.733 0 0 0 .738-.73V14.59c0-1.76-1.27-3.234-2.953-3.574m-2.954-4.45h1.477v4.377h-1.477zm-.739 5.836h2.954c1.222 0 2.215.982 2.215 2.188v.73h-7.384v-.73c0-1.207.994-2.188 2.215-2.188m5.17 16.777h-7.385v-1.459h2.954V26.26h-2.954v-9.483h7.384zm-7.385 2.918v-1.46h7.384v1.46zM41.77 9.976H29.308a.703.703 0 0 0-.692.714v22.15c0 .395.31.715.692.715H41.77c.382 0 .692-.32.692-.715V10.69a.703.703 0 0 0-.692-.714m-.693 22.15H30V11.405h11.077z"/><path fill="#2b7fff" d="M10.154 24.486H8.308v.907h1.846zM23.077 26.3h-1.846v1.813h1.846zM20.77 24.486c1.781 0 3.23-1.424 3.23-3.174s-1.449-3.174-3.23-3.174c-1.782 0-3.231 1.423-3.231 3.174s1.449 3.174 3.23 3.174m0-4.761c.89 0 1.615.711 1.615 1.587 0 .875-.725 1.587-1.616 1.587-.89 0-1.615-.712-1.615-1.587 0-.876.724-1.587 1.615-1.587M33.808 17.23h3.461c1.337 0 2.424-1.016 2.424-2.267s-1.087-2.267-2.424-2.267h-3.461c-1.336 0-2.423 1.017-2.423 2.268s1.087 2.267 2.423 2.267m4.5-2.267c0 .536-.466.972-1.039.972h-1.038v-1.943h1.038c.573 0 1.039.436 1.039.971m-4.5-.971h1.038v1.943h-1.038c-.573 0-1.039-.436-1.039-.972 0-.535.466-.971 1.039-.971M33.808 24.486h3.461c1.337 0 2.424-1.22 2.424-2.72s-1.087-2.722-2.424-2.722h-3.461c-1.336 0-2.423 1.22-2.423 2.721 0 1.5 1.087 2.72 2.423 2.72m4.5-2.72c0 .642-.466 1.165-1.039 1.165h-1.038V20.6h1.038c.573 0 1.039.523 1.039 1.165m-4.5-1.165h1.038v1.165h-1.038c-.573 0-1.039-.523-1.039-1.165 0-.642.466-1.165 1.039-1.165"/>
  </symbol>
<symbol id="science" viewBox="0 0 44 44" fill="none"><path fill="#2b7fff" d="M19.727 0c-1.575 0-3.046.717-4.3 1.892-1.253 1.174-2.326 2.81-3.22 4.792q-.282.623-.539 1.292a25 25 0 0 0-1.39-.181 21 21 0 0 0-1.582-.1c-1.539-.036-2.946.12-4.179.494-1.644.498-3 1.414-3.788 2.778s-.902 2.996-.512 4.67c.39 1.672 1.271 3.42 2.54 5.185q.4.555.85 1.114-.44.543-.849 1.111C1.489 24.813.609 26.56.218 28.233c-.39 1.674-.275 3.306.512 4.67.788 1.364 2.144 2.28 3.788 2.778s3.598.61 5.761.394q.681-.069 1.388-.18.251.654.54 1.293c.894 1.982 1.967 3.618 3.22 4.792 1.254 1.175 2.726 1.892 4.3 1.892 1.575 0 3.046-.717 4.3-1.892s2.327-2.81 3.222-4.792q.287-.639.538-1.293.707.111 1.387.18c2.164.216 4.117.104 5.761-.394 1.644-.499 3-1.414 3.788-2.778s.902-2.997.512-4.67c-.39-1.672-1.27-3.42-2.54-5.186q-.408-.567-.85-1.111.443-.545.852-1.113c1.268-1.766 2.149-3.514 2.539-5.187s.276-3.305-.512-4.67c-.787-1.363-2.144-2.279-3.788-2.777-1.233-.374-2.64-.53-4.179-.493q-.77.018-1.582.099-.681.068-1.389.18a25 25 0 0 0-.538-1.291c-.894-1.982-1.968-3.618-3.221-4.792C22.773.717 21.302 0 19.727 0m0 1.752c1.05 0 2.08.462 3.102 1.418 1.021.957 1.997 2.405 2.823 4.235q.201.447.383.904c-2.008.446-4.135 1.131-6.308 2.046-2.173-.915-4.3-1.6-6.307-2.046q.185-.465.383-.904c.826-1.83 1.801-3.278 2.823-4.235 1.021-.957 2.05-1.418 3.101-1.418M8.141 9.445q.253-.002.515.003.698.015 1.448.09.48.049.977.121c-.617 1.962-1.087 4.146-1.382 6.486-1.88 1.425-3.536 2.924-4.926 4.44q-.306-.387-.593-.785c-1.172-1.63-1.938-3.199-2.256-4.562s-.203-2.486.322-3.395c.526-.91 1.44-1.571 2.78-1.977.878-.267 1.93-.41 3.115-.421m23.172 0c1.184.01 2.236.154 3.115.42 1.34.407 2.254 1.068 2.78 1.978.524.91.64 2.032.322 3.395s-1.085 2.932-2.256 4.562q-.288.4-.593.785c-1.39-1.515-3.046-3.014-4.925-4.44-.295-2.34-.765-4.524-1.383-6.486q.497-.073.976-.12a19 19 0 0 1 1.964-.094m-4.68.529a34 34 0 0 1 1.14 4.753 48 48 0 0 0-5.826-3.364 34 34 0 0 1 4.686-1.39m-13.811 0a34 34 0 0 1 4.685 1.39 48 48 0 0 0-5.825 3.362 34 34 0 0 1 1.14-4.752m6.905 2.293a45 45 0 0 1 4.315 2.193c1.443.833 2.8 1.72 4.058 2.642.168 1.549.26 3.168.26 4.834s-.091 3.284-.26 4.833a45 45 0 0 1-4.057 2.64 45 45 0 0 1-4.316 2.194 45 45 0 0 1-4.316-2.193 45 45 0 0 1-4.056-2.64 45 45 0 0 1-.26-4.834c0-1.666.091-3.286.26-4.835a45 45 0 0 1 4.057-2.641 45 45 0 0 1 4.315-2.193m.118 2.636-5.015 3.095 5.015 3.096 5.016-3.096zM9.462 18.572a48 48 0 0 0 0 6.726 34 34 0 0 1-3.547-3.363 34 34 0 0 1 3.547-3.363m20.531 0a34 34 0 0 1 3.545 3.363 34 34 0 0 1-3.545 3.362 48 48 0 0 0 0-6.724M13.7 19.36v6.112l5.267 3.25v-6.111zm12.286.003-5.266 3.25v6.11l5.266-3.251zM4.773 23.285c1.39 1.516 3.047 3.015 4.926 4.44.294 2.34.765 4.523 1.382 6.485q-.497.073-.976.121c-1.997.2-3.74.079-5.078-.327-1.34-.406-2.254-1.068-2.78-1.977-.525-.91-.64-2.033-.322-3.396S3.009 25.7 4.18 24.07a22 22 0 0 1 .591-.785m29.908 0q.311.395.592.785c1.171 1.63 1.938 3.198 2.256 4.561s.202 2.486-.323 3.396-1.44 1.57-2.78 1.977c-1.338.406-3.08.526-5.077.327q-.489-.05-.975-.12c.617-1.963 1.088-4.147 1.382-6.487 1.879-1.425 3.535-2.923 4.925-4.439m-6.908 5.858a34 34 0 0 1-1.14 4.753 34 34 0 0 1-4.686-1.39 48 48 0 0 0 5.826-3.363m-16.09.001a48 48 0 0 0 5.823 3.363 34 34 0 0 1-4.685 1.389 34 34 0 0 1-1.139-4.752m8.096.08.064.04.064-.04zm-.052 4.29c2.174.916 4.3 1.6 6.309 2.047q-.183.457-.384.906c-.826 1.83-1.802 3.278-2.823 4.235s-2.051 1.418-3.102 1.418-2.08-.461-3.101-1.418c-1.022-.957-1.997-2.405-2.823-4.235q-.203-.45-.384-.906c2.008-.447 4.134-1.132 6.308-2.046"/></symbol>
  <symbol id="facebook" viewBox="0 0 42 42" fill="currentColor">
    <path d="M31.482 2.793a49 49 0 0 0-5.314-.273c-5.886 0-9.543 3.749-9.543 9.783v4.096H11.68a.875.875 0 0 0-.875.875v6.738a.875.875 0 0 0 .875.875h4.944v13.51a.875.875 0 0 0 .875.875h6.961a.875.875 0 0 0 .875-.875v-13.51h4.928a.875.875 0 0 0 .868-.762l.87-6.737a.877.877 0 0 0-.868-.989h-5.798v-3.428c0-1.697.342-2.406 2.464-2.406h3.569a.875.875 0 0 0 .875-.875V3.66a.875.875 0 0 0-.762-.868m-.988 6.02-2.695.002c-3.775 0-4.213 2.373-4.213 4.156v4.305a.875.875 0 0 0 .874.875h5.68l-.646 4.988h-5.033a.875.875 0 0 0-.875.875V37.52h-5.211V24.013a.875.875 0 0 0-.875-.875h-4.942v-4.987H17.5a.875.875 0 0 0 .875-.875v-4.973c0-5.03 2.914-8.033 7.793-8.033 1.765 0 3.36.096 4.326.18z"/>
  </symbol>
  <symbol id="instagram" viewBox="0 0 42 42" fill="currentColor">
    <path d="M21 13.453a7.547 7.547 0 1 0 0 15.093 7.547 7.547 0 0 0 0-15.093m0 13.125A5.578 5.578 0 1 1 26.578 21 5.594 5.594 0 0 1 21 26.578m7.219-21.656H13.78a8.86 8.86 0 0 0-8.86 8.86v14.437a8.86 8.86 0 0 0 8.86 8.86H28.22a8.86 8.86 0 0 0 8.86-8.86V13.78a8.86 8.86 0 0 0-8.86-8.86m6.89 23.297a6.89 6.89 0 0 1-6.89 6.89H13.78a6.89 6.89 0 0 1-6.89-6.89V13.78a6.89 6.89 0 0 1 6.89-6.89H28.22a6.89 6.89 0 0 1 6.89 6.89zm-3.937-15.75a1.64 1.64 0 1 1-3.28 0 1.64 1.64 0 0 1 3.28 0"/>
  </symbol>
  <symbol id="telephone" viewBox="0 0 42 42" fill="currentColor">
    <path d="m36.297 30.132-.228-.284c-1.8-2.277-3.306-3.461-4.597-3.617-1.117-.153-2.197.62-3.344 1.414l-1.227.766a2.7 2.7 0 0 1-.429.173c-.718.204-2.529.323-3.554-.616-1.194-1.091-3.045-3.09-4.485-4.837-1.376-1.807-2.888-4.061-3.677-5.48-.667-1.203-.109-2.884.264-3.508a2.4 2.4 0 0 1 .277-.362l1.081-.999c.016-.016.023-.035.037-.049.01-.01.028-.007.04-.016.977-.824 1.986-1.673 2.125-2.763.162-1.281-.634-3.013-2.438-5.288l-.22-.284c-1.117-1.431-2.806-3.596-5.232-3.24-.953.143-1.805.468-2.684 1.02-.009.005-.014.015-.021.02s-.016.006-.023.01L6.74 3.1c-.012.007-.02.023-.031.034-.01.008-.023.01-.034.019a16 16 0 0 0-.423.367C5.01 4.625 2.324 7.837 4.156 13.776c1.183 3.836 3.623 8.313 7.072 12.971l-.034.028 1.903 2.37.016-.013c3.74 4.424 7.546 7.844 11.033 9.914 2.328 1.383 4.361 1.84 6.034 1.84 2.202 0 3.779-.792 4.57-1.306l.496-.333c.056-.038.097-.093.137-.142l1.083-.815c.012-.01.02-.024.032-.035.005-.005.014-.004.02-.009.77-.703 1.304-1.44 1.675-2.313.961-2.239-.759-4.382-1.896-5.802m.61 5.251c-.288.68-.71 1.257-1.32 1.817l-1.611 1.212c-1.46.949-4.58 2.121-9.112-.57-3.488-2.07-7.328-5.57-11.106-10.122l-1.022-1.291c-3.557-4.718-6.06-9.237-7.241-13.066-1.535-4.979.399-7.65 1.694-8.802.131-.12.262-.23.392-.34l.005-.005 1.174-.87c.714-.451 1.376-.703 2.137-.819 1.626-.245 2.949 1.47 3.92 2.716l.227.289c2.017 2.543 2.21 3.752 2.148 4.245-.07.548-.903 1.25-1.638 1.868l-.104.087-.008.012q-.007.004-.016.009l-1.118 1.034c-.007.007-.01.016-.018.025-.007.008-.02.012-.028.02a4 4 0 0 0-.443.59c-.628 1.052-1.221 3.226-.285 4.907.817 1.47 2.373 3.793 3.803 5.669 1.494 1.813 3.4 3.87 4.636 5 .925.845 2.214 1.128 3.328 1.128a6 6 0 0 0 1.56-.2q.327-.095.677-.267c.014-.007.02-.02.035-.028.007-.003.017-.002.024-.007l1.299-.812c.042-.028.07-.065.105-.1l.015.018c.8-.555 1.712-1.206 2.283-1.111.505.06 1.653.547 3.673 3.097l.233.292c.983 1.227 2.33 2.907 1.702 4.375"/>
  </symbol>
</svg>
