<svg xmlns="http://www.w3.org/2000/svg" width="43" height="34" fill="none"><path fill="#2b7fff" d="M13.108 10.883H-.184c-.409 0-.739.316-.739.708v4.251c0 .392.33.709.739.709h.738v16.295c0 .392.33.709.739.709H11.63c.408 0 .739-.317.739-.709V16.551h.738c.408 0 .738-.317.738-.709v-4.25c0-.393-.33-.71-.738-.71M4.985 24.344v-1.417h4.43V21.51h-4.43v-1.417h5.908v9.21H4.985v-3.542h1.477v-1.417zm5.908-5.668H4.246c-.408 0-.738.317-.738.709v10.627c0 .392.33.709.738.709h6.647v1.417H2.03V16.55h8.862zm1.476-3.542H.555V12.3H12.37zM22.893 11.015v-5.18c0-.403-.33-.729-.739-.729h-.738V1.46h1.477V0H14.77v1.459h5.169v3.647H19.2a.733.733 0 0 0-.738.73v5.18c-1.683.339-2.954 1.811-2.954 3.573v18.236c0 .404.33.73.739.73h8.861a.733.733 0 0 0 .738-.73V14.59c0-1.76-1.27-3.234-2.953-3.574m-2.954-4.45h1.477v4.377h-1.477zm-.739 5.836h2.954c1.222 0 2.215.982 2.215 2.188v.73h-7.384v-.73c0-1.207.994-2.188 2.215-2.188m5.17 16.777h-7.385v-1.459h2.954V26.26h-2.954v-9.483h7.384zm-7.385 2.918v-1.46h7.384v1.46zM41.77 9.976H29.308a.703.703 0 0 0-.692.714v22.15c0 .395.31.715.692.715H41.77c.382 0 .692-.32.692-.715V10.69a.703.703 0 0 0-.692-.714m-.693 22.15H30V11.405h11.077z"/><path fill="#2b7fff" d="M10.154 24.486H8.308v.907h1.846zM23.077 26.3h-1.846v1.813h1.846zM20.77 24.486c1.781 0 3.23-1.424 3.23-3.174s-1.449-3.174-3.23-3.174c-1.782 0-3.231 1.423-3.231 3.174s1.449 3.174 3.23 3.174m0-4.761c.89 0 1.615.711 1.615 1.587 0 .875-.725 1.587-1.616 1.587-.89 0-1.615-.712-1.615-1.587 0-.876.724-1.587 1.615-1.587M33.808 17.23h3.461c1.337 0 2.424-1.016 2.424-2.267s-1.087-2.267-2.424-2.267h-3.461c-1.336 0-2.423 1.017-2.423 2.268s1.087 2.267 2.423 2.267m4.5-2.267c0 .536-.466.972-1.039.972h-1.038v-1.943h1.038c.573 0 1.039.436 1.039.971m-4.5-.971h1.038v1.943h-1.038c-.573 0-1.039-.436-1.039-.972 0-.535.466-.971 1.039-.971M33.808 24.486h3.461c1.337 0 2.424-1.22 2.424-2.72s-1.087-2.722-2.424-2.722h-3.461c-1.336 0-2.423 1.22-2.423 2.721 0 1.5 1.087 2.72 2.423 2.72m4.5-2.72c0 .642-.466 1.165-1.039 1.165h-1.038V20.6h1.038c.573 0 1.039.523 1.039 1.166m-4.5-1.167h1.038v2.332h-1.038c-.573 0-1.039-.523-1.039-1.166s.466-1.166 1.039-1.166M33.808 30.834h3.461c1.337 0 2.424-1.22 2.424-2.72s-1.087-2.721-2.424-2.721h-3.461c-1.336 0-2.423 1.22-2.423 2.72s1.087 2.721 2.423 2.721m4.5-2.72c0 .642-.466 1.165-1.039 1.165h-1.038v-2.331h1.038c.573 0 1.039.523 1.039 1.165m-4.5-1.166h1.038v2.331h-1.038c-.573 0-1.039-.523-1.039-1.166s.466-1.165 1.039-1.165"/></svg>