<svg xmlns="http://www.w3.org/2000/svg" width="40" height="44" fill="none"><path fill="#2b7fff" d="M19.727 0c-1.575 0-3.046.717-4.3 1.892-1.253 1.174-2.326 2.81-3.22 4.792q-.282.623-.539 1.292a25 25 0 0 0-1.39-.181 21 21 0 0 0-1.582-.1c-1.539-.036-2.946.12-4.179.494-1.644.498-3 1.414-3.788 2.778s-.902 2.996-.512 4.67c.39 1.672 1.271 3.42 2.54 5.185q.4.555.85 1.114-.44.543-.849 1.111C1.489 24.813.609 26.56.218 28.233c-.39 1.674-.275 3.306.512 4.67.788 1.364 2.144 2.28 3.788 2.778s3.598.61 5.761.394q.681-.069 1.388-.18.251.654.54 1.293c.894 1.982 1.967 3.618 3.22 4.792 1.254 1.175 2.726 1.892 4.3 1.892 1.575 0 3.046-.717 4.3-1.892s2.327-2.81 3.222-4.792q.287-.639.538-1.293.707.111 1.387.18c2.164.216 4.117.104 5.761-.394 1.644-.499 3-1.414 3.788-2.778s.902-2.997.512-4.67c-.39-1.672-1.27-3.42-2.54-5.186q-.408-.567-.85-1.111.443-.545.852-1.113c1.268-1.766 2.149-3.514 2.539-5.187s.276-3.305-.512-4.67c-.787-1.363-2.144-2.279-3.788-2.777-1.233-.374-2.64-.53-4.179-.493q-.77.018-1.582.099-.681.068-1.389.18a25 25 0 0 0-.538-1.291c-.894-1.982-1.968-3.618-3.221-4.792C22.773.717 21.302 0 19.727 0m0 1.752c1.05 0 2.08.462 3.102 1.418 1.021.957 1.997 2.405 2.823 4.235q.201.447.383.904c-2.008.446-4.135 1.131-6.308 2.046-2.173-.915-4.3-1.6-6.307-2.046q.185-.465.383-.904c.826-1.83 1.801-3.278 2.823-4.235 1.021-.957 2.05-1.418 3.101-1.418M8.141 9.445q.253-.002.515.003.698.015 1.448.09.48.049.977.121c-.617 1.962-1.087 4.146-1.382 6.486-1.88 1.425-3.536 2.924-4.926 4.44q-.306-.387-.593-.785c-1.172-1.63-1.938-3.199-2.256-4.562s-.203-2.486.322-3.395c.526-.91 1.44-1.571 2.78-1.977.878-.267 1.93-.41 3.115-.421m23.172 0c1.184.01 2.236.154 3.115.42 1.34.407 2.254 1.068 2.78 1.978.524.91.64 2.032.322 3.395s-1.085 2.932-2.256 4.562q-.288.4-.593.785c-1.39-1.515-3.046-3.014-4.925-4.44-.295-2.34-.765-4.524-1.383-6.486q.497-.073.976-.12a19 19 0 0 1 1.964-.094m-4.68.529a34 34 0 0 1 1.14 4.753 48 48 0 0 0-5.826-3.364 34 34 0 0 1 4.686-1.39m-13.811 0a34 34 0 0 1 4.685 1.39 48 48 0 0 0-5.825 3.362 34 34 0 0 1 1.14-4.752m6.905 2.293a45 45 0 0 1 4.315 2.193c1.443.833 2.8 1.72 4.058 2.642.168 1.549.26 3.168.26 4.834s-.091 3.284-.26 4.833a45 45 0 0 1-4.057 2.64 45 45 0 0 1-4.316 2.194 45 45 0 0 1-4.316-2.193 45 45 0 0 1-4.056-2.64 45 45 0 0 1-.26-4.834c0-1.666.091-3.286.26-4.835a45 45 0 0 1 4.057-2.641 45 45 0 0 1 4.315-2.193m.118 2.636-5.015 3.095 5.015 3.096 5.016-3.096zM9.462 18.572a48 48 0 0 0 0 6.726 34 34 0 0 1-3.547-3.363 34 34 0 0 1 3.547-3.363m20.531 0a34 34 0 0 1 3.545 3.363 34 34 0 0 1-3.545 3.362 48 48 0 0 0 0-6.724M13.7 19.36v6.112l5.267 3.25v-6.111zm12.286.003-5.266 3.25v6.11l5.266-3.251zM4.773 23.285c1.39 1.516 3.047 3.015 4.926 4.44.294 2.34.765 4.523 1.382 6.485q-.497.073-.976.121c-1.997.2-3.74.079-5.078-.327-1.34-.406-2.254-1.068-2.78-1.977-.525-.91-.64-2.033-.322-3.396S3.009 25.7 4.18 24.07a22 22 0 0 1 .591-.785m29.908 0q.311.395.592.785c1.171 1.63 1.938 3.198 2.256 4.561s.202 2.486-.323 3.396-1.44 1.57-2.78 1.977c-1.338.406-3.08.526-5.077.327q-.489-.05-.975-.12c.617-1.963 1.088-4.147 1.382-6.487 1.879-1.425 3.535-2.923 4.925-4.439m-6.908 5.858a34 34 0 0 1-1.14 4.753 34 34 0 0 1-4.686-1.39 48 48 0 0 0 5.826-3.363m-16.09.001a48 48 0 0 0 5.823 3.363 34 34 0 0 1-4.685 1.389 34 34 0 0 1-1.139-4.752m8.096.08.064.04.064-.04zm-.052 4.29c2.174.916 4.3 1.6 6.309 2.047q-.183.457-.384.906c-.826 1.83-1.802 3.278-2.823 4.235s-2.051 1.418-3.102 1.418-2.08-.461-3.101-1.418c-1.022-.957-1.997-2.405-2.823-4.235q-.203-.45-.384-.906c2.008-.447 4.134-1.132 6.308-2.046"/></svg>